<?xml version="1.0" encoding="utf-8"?>
<!-- Generator: Adobe Illustrator 16.0.0, SVG Export Plug-In . SVG Version: 6.00 Build 0)  -->
<!DOCTYPE svg PUBLIC "-//W3C//DTD SVG 1.1//EN" "http://www.w3.org/Graphics/SVG/1.1/DTD/svg11.dtd">
<svg version="1.1" id="Layer_1" xmlns="http://www.w3.org/2000/svg" xmlns:xlink="http://www.w3.org/1999/xlink" x="0px" y="0px"
	 width="680.314px" height="297.638px" viewBox="0 0 680.314 297.638" enable-background="new 0 0 680.314 297.638"
	 xml:space="preserve">
<g>
	<rect fill="#FFFFFF" width="680.314" height="297.638"/>
	<g>
		<g>
			<rect x="10.696" y="10.63" fill="#7670B3" width="204.688" height="216.171"/>
			<path fill="#FFFFFF" d="M82.32,60.542h28.715c7.778,0,13.781,0.673,17.913,1.968c4.223,1.307,7.349,3.115,9.462,5.575
				c2.108,2.438,3.523,5.423,4.235,8.859c0.782,3.521,1.143,8.897,1.143,16.139v10.126c0,7.414-0.747,12.816-2.16,16.221
				c-1.429,3.416-4.073,6.01-7.935,7.856c-3.847,1.788-8.877,2.704-15.168,2.704h-7.571v46.927H82.32V60.542z M110.954,80.539
				v29.387c0.795,0.035,1.474,0.063,2.046,0.063c2.604,0,4.373-0.727,5.372-2.064c1.018-1.351,1.495-4.16,1.495-8.4v-9.488
				c0-3.929-0.558-6.514-1.754-7.68C116.962,81.158,114.564,80.539,110.954,80.539z"/>
			<rect x="215.384" y="10.63" fill="#8DC63F" width="204.684" height="216.271"/>
			<path fill="#FFFFFF" d="M337.504,60.597l16.37,116.32h-29.122l-1.563-20.83h-10.49l-1.502,20.83h-29.632l14.559-116.32H337.504z
				 M322.251,135.568c-1.298-13.255-2.767-29.695-4.298-49.27c-2.745,22.498-4.491,38.836-5.335,49.27H322.251z"/>
			<rect x="420.106" y="10.63" fill="#F58233" width="204.656" height="216.171"/>
			<polygon fill="#FFFFFF" points="554.378,60.542 554.378,176.917 529.405,176.917 514.437,124.043 514.437,176.917 
				490.517,176.917 490.517,60.542 514.437,60.542 530.426,112.947 530.426,60.542 			"/>
			<rect x="624.722" y="10.63" width="44.902" height="216.171"/>
			<path fill="#FFFFFF" d="M654.585,193.733c5.86,1.787,7.825,6.967,7.825,11.425c0,7.308-3.306,12.97-13.478,12.97
				c-2.913,0-12.445-1.123-12.445-12.478c0-5.126,2.355-12.206,13.648-12.206h1.116v17.832c1.825-0.175,5.998-0.586,5.998-6.118
				c0-1.883-0.951-3.866-2.665-4.402V193.733z M646.991,200.471c-3.968,0.383-5.156,3.071-5.156,5.281
				c0,3.213,1.943,4.938,5.156,5.35V200.471z"/>
			<path fill="#FFFFFF" d="M661.777,151.701v6.843h-14.969c-3.614,0-4.854,1.713-4.854,3.713c0,3.412,2.138,4.66,5.037,4.66h14.786
				v6.828H646.93c-2.062,0-4.976,0-4.976,4.114c0,3.213,2.138,4.222,4.854,4.222h14.969v6.858h-24.609v-6.556h3.635V182.3
				c-1.646-0.891-4.315-2.766-4.315-7.401c0-3.753,1.313-5.419,3.992-7.233c-1.232-0.834-3.992-2.764-3.992-6.923
				c0-5.132,2.831-9.041,8.262-9.041H661.777z"/>
			<path fill="#FFFFFF" d="M634.255,138.358v6.898h-6.061v-6.898H634.255z M637.168,138.358h24.609v6.898h-24.609V138.358z"/>
			<path fill="#FFFFFF" d="M637.168,131.908v-6.535h4.244v-0.137c-2.502-1.389-4.925-2.923-4.925-7.086
				c0-0.477,0.089-0.907,0.089-1.357h6.618c-0.092,0.619-0.092,1.357-0.092,1.972c0,5.356,3.143,6.257,5.83,6.257h12.845v6.887
				H637.168z"/>
			<path fill="#FFFFFF" d="M656.985,91.781c2.918,0,3.521-0.694,3.82-1.555h0.972v7.422c-1.175,0.376-1.529,0.521-2.908,0.635
				c1.557,1.557,3.541,3.795,3.541,8.384c0,3.956-2.046,7.908-7.127,7.908c-4.865,0-7.277-3.224-7.924-7.574l-0.864-6.116
				c-0.115-1.096-0.487-2.398-1.936-2.398c-2.725,0-2.875,2.691-2.875,4.469c0,3.447,2.032,4.006,3.453,4.248v6.609
				c-7.535-0.818-8.65-6.348-8.65-11.656c0-3.67,1.115-10.375,7.181-10.375H656.985z M649.771,98.486
				c0.554,0.669,0.975,1.754,1.354,4.621c0.417,2.555,1.033,4.628,3.733,4.628c2.203,0,2.929-1.854,2.929-3.208
				c0-3.005-1.823-6.041-4.854-6.041H649.771z"/>
			<path fill="#FFFFFF" d="M637.168,78.001v-4.277h4.604v4.277h13.374c1.431,0,1.977-0.083,1.977-2.856
				c0-0.424-0.061-0.908-0.069-1.421h4.875c0.063,1.057,0.152,2.152,0.152,3.22v0.891c0,5.901-2.177,7.004-5.318,7.004h-14.99v3.523
				h-4.604V84.84h-6.662v-6.839H637.168z"/>
			<path fill="#FFFFFF" d="M654.585,47.064c5.86,1.815,7.825,7.011,7.825,11.46c0,7.308-3.306,12.892-13.478,12.892
				c-2.913,0-12.445-1.029-12.445-12.435c0-5.113,2.355-12.227,13.648-12.227h1.116V64.6c1.825-0.192,5.998-0.599,5.998-6.076
				c0-1.944-0.951-3.866-2.665-4.433V47.064z M646.991,53.774c-3.968,0.466-5.156,3.095-5.156,5.305
				c0,3.201,1.943,4.921,5.156,5.329V53.774z"/>
			<path fill="#FFFFFF" d="M644.667,27.504c-1.564,0.314-3.255,0.886-3.255,4.59c0,3.69,1.359,4.242,2.405,4.242
				c3.917,0,1.051-16.277,10.123-16.277c7.167,0,8.47,7.317,8.47,11.351c0,5.935-1.965,12.325-8.478,12.5v-7.047
				c2.061,0,3.608-1.318,3.608-5.629c0-3.51-1.637-4.382-2.567-4.382c-4.114,0-1.033,16.155-10.225,16.155
				c-3.612,0-8.262-2.391-8.262-10.471c0-5.152,1.231-11.174,8.18-11.726V27.504z"/>
		</g>
		<g>
			<polygon points="18.197,268.823 18.197,285.964 10.632,285.964 10.632,247.699 18.197,247.699 18.197,262.207 32.311,262.207 
				32.311,247.699 39.913,247.699 39.913,285.964 32.311,285.964 32.311,268.823 			"/>
			<path d="M73.188,246.681c4.772,0,17.416,2.18,17.416,20.115c0,17.979-12.644,20.212-17.416,20.212
				c-4.766,0-17.364-2.232-17.364-20.212C55.824,248.86,68.422,246.681,73.188,246.681z M73.188,280.212
				c4.105,0,9.863-2.649,9.863-13.416c0-10.657-5.757-13.362-9.863-13.362c-4.019,0-9.811,2.705-9.811,13.362
				C63.378,277.563,69.17,280.212,73.188,280.212z"/>
			<polygon points="141.556,285.964 134.478,285.964 134.478,253.979 134.378,253.979 127.667,285.964 120.21,285.964 
				113.574,253.979 113.466,253.979 113.466,285.964 106.438,285.964 106.438,247.699 117.472,247.699 124.024,277.856 
				124.138,277.856 130.576,247.699 141.556,247.699 			"/>
			<polygon points="185.594,254.482 166.349,254.482 166.349,262.524 183.982,262.524 183.982,269.26 166.349,269.26 
				166.349,279.175 186.402,279.175 186.402,285.964 158.918,285.964 158.918,247.699 185.594,247.699 			"/>
			<polygon points="234.384,285.964 226.804,285.964 226.804,247.699 252.568,247.699 252.568,254.482 234.384,254.482 
				234.384,263.146 250.323,263.146 250.323,269.823 234.384,269.823 			"/>
			<path d="M296.743,272.589c0,10.114-5.753,14.419-14.896,14.419c-3.332,0-8.273-0.942-11.47-4.676
				c-1.99-2.312-2.752-5.441-2.842-9.253v-25.38h7.737v24.844c0,5.313,2.89,7.669,6.398,7.669c5.275,0,7.367-2.649,7.367-7.267
				v-25.246h7.705V272.589z"/>
			<path d="M314.26,247.699h18.314c9.659,0,11.413,7.516,11.413,10.821c0,4.196-2.02,7.81-5.621,9.115
				c3.021,1.398,4.659,2.535,4.659,9.716c0,5.572,0,6.949,1.562,7.592v1.021h-8.354c-0.558-1.817-0.803-3.797-0.803-7.72
				c0-5.254-0.306-7.234-5.949-7.234h-7.816v14.954h-7.404V247.699z M330.548,264.581c3.923,0,5.858-1.436,5.858-5.266
				c0-2.046-0.863-5.027-5.316-5.027h-9.426v10.293H330.548z"/>
			<polygon points="382.899,247.699 389.924,247.699 389.924,285.964 382.414,285.964 367.639,258.663 367.507,258.663 
				367.507,285.964 360.459,285.964 360.459,247.699 368.411,247.699 382.794,274.34 382.899,274.34 			"/>
			<rect x="407.441" y="247.699" width="6.152" height="38.268"/>
			<path d="M436.841,274.175c0.103,2.142,1.134,6.198,7.702,6.198c3.594,0,7.525-0.908,7.525-4.958c0-2.977-2.732-3.776-6.539-4.777
				l-3.892-0.963c-5.865-1.4-11.533-2.753-11.533-11.252c0-4.195,2.207-11.742,13.968-11.742c11.09,0,14.074,7.688,14.129,12.364
				h-7.229c-0.242-1.685-0.867-5.744-7.44-5.744c-2.897,0-6.329,1.104-6.329,4.589c0,2.931,2.304,3.628,3.872,3.969l8.811,2.317
				c4.942,1.274,9.465,3.44,9.465,10.28c0,11.508-11.11,12.552-14.262,12.552c-13.222,0-15.478-8.103-15.478-12.833H436.841z"/>
			<polygon points="482.502,268.823 482.502,285.964 474.976,285.964 474.976,247.699 482.502,247.699 482.502,262.207 
				496.684,262.207 496.684,247.699 504.257,247.699 504.257,285.964 496.684,285.964 496.684,268.823 			"/>
			<rect x="521.818" y="247.699" width="6.155" height="38.268"/>
			<polygon points="567.939,247.699 575.033,247.699 575.033,285.964 567.479,285.964 552.679,258.663 552.57,258.663 
				552.57,285.964 545.548,285.964 545.548,247.699 553.46,247.699 567.827,274.34 567.939,274.34 			"/>
			<path d="M609.405,265.359h15.144v20.604h-5.036l-0.763-4.738c-1.909,2.247-4.679,5.782-11.297,5.782
				c-8.768,0-16.646-6.635-16.646-20.063c0-10.474,5.512-20.346,17.683-20.265c11.144,0,15.495,7.607,15.925,12.894h-7.573
				c0-1.501-2.612-6.273-7.936-6.273c-5.374,0-10.415,3.941-10.415,13.729c0,10.467,5.411,13.183,10.528,13.183
				c1.699,0,7.249-0.689,8.849-8.427h-8.462V265.359z"/>
			<path d="M647.179,274.175c0.046,2.142,1.026,6.198,7.644,6.198c3.588,0,7.625-0.908,7.625-4.958c0-2.977-2.795-3.776-6.615-4.777
				l-3.872-0.963c-5.819-1.4-11.51-2.753-11.51-11.252c0-4.195,2.16-11.742,13.93-11.742c11.126,0,14.092,7.688,14.119,12.364
				h-7.264c-0.182-1.685-0.808-5.744-7.412-5.744c-2.895,0-6.297,1.104-6.297,4.589c0,2.931,2.324,3.628,3.794,3.969l8.864,2.317
				c4.961,1.274,9.503,3.44,9.503,10.28c0,11.508-11.107,12.552-14.283,12.552c-13.271,0-15.478-8.103-15.478-12.833H647.179z"/>
		</g>
	</g>
</g>
</svg>
